<svg version="1.1" xmlns="http://www.w3.org/2000/svg" stroke="currentColor" style="display: block;" viewBox="65.333 269.333 1917.333 1509.333" width="1917.333" height="1509.333" preserveAspectRatio="none">
<path fill="currentColor" transform="translate(0,0)" d="M 992.165 820.461 C 995.879 788.814 1003.34 757.948 1010.23 727.39 C 1056.47 522.351 1182.75 323.508 1411.44 308.015 C 1437.25 306.266 1464.29 306.589 1490.49 306.946 C 1550.79 307.766 1614.34 329.886 1661.77 367.002 C 1693.3 391.633 1719.19 422.722 1737.7 458.183 C 1753.8 489.228 1764.21 522.902 1768.45 557.615 C 1771.47 582.782 1770.46 602.194 1770.35 627.346 L 1770.1 718.477 C 1770.08 787.535 1771.72 845.558 1823.82 899.006 C 1855.75 931.739 1899.35 950.485 1945.07 951.138 L 1945.01 1095.85 C 1941.58 1096.03 1938.15 1096.25 1934.73 1096.54 C 1842.84 1104.52 1777.79 1178.27 1771.62 1268.4 C 1770.22 1288.98 1770.76 1309.9 1770.79 1330.53 L 1770.96 1413.64 C 1771.01 1450.04 1771.95 1476.85 1765.03 1512.91 C 1755.94 1560.36 1734.79 1604.66 1703.62 1641.57 C 1648.59 1706.93 1578.99 1733.53 1496.34 1740.6 C 1490.51 1741.43 1464.18 1740.32 1456.46 1740.29 C 1424.6 1740.14 1392.73 1740.31 1360.86 1740.8 L 1360.87 1631.09 C 1360.88 1620.12 1361.54 1588.3 1360.22 1579.01 C 1401.58 1578.55 1451.54 1583.34 1492.52 1576.8 C 1506.92 1574.5 1531.42 1562.6 1543.13 1553.68 C 1602.63 1508.34 1597.99 1450.42 1597.93 1385.13 L 1597.85 1311.09 C 1597.85 1281.74 1597.05 1258.95 1601.92 1229.68 C 1616.85 1139.93 1657.94 1076.25 1730.81 1023.6 C 1711.26 1009.22 1695.88 997.282 1679.03 979.468 C 1633.96 931.824 1605.19 867.227 1599.36 801.971 C 1597.41 780.131 1597.89 758.737 1597.88 736.835 L 1597.91 639.737 C 1597.89 594.4 1598.25 559.591 1569.93 520.57 C 1550.58 493.914 1517.86 474.686 1485.34 469.937 C 1472.01 467.851 1458.41 469.125 1445.05 468.74 C 1240.31 462.836 1156.83 680.729 1133.9 850.555 C 1141.13 855.414 1147.59 859.593 1154.25 865.301 C 1197.87 823.115 1239.14 776.068 1283.29 733.221 C 1272.02 714.799 1270.12 689.999 1277.77 669.877 C 1284.55 652.237 1297.97 637.956 1315.16 630.093 C 1333.17 622.073 1353.65 621.599 1372.02 628.776 C 1409.08 643.297 1425.99 688.402 1410.83 724.411 C 1403.23 742.215 1388.84 756.244 1370.84 763.374 C 1349.85 771.633 1331.9 768.874 1311.89 760.068 C 1270.35 802.712 1222.69 850.706 1182.87 894.124 C 1208.99 925.081 1224.93 963.336 1228.52 1003.68 L 1370.24 1004.03 C 1375.09 990.674 1378.92 981.772 1389.46 971.718 C 1403.57 958.181 1422.58 950.961 1442.12 951.718 C 1460.99 952.188 1478.87 960.267 1491.69 974.117 C 1504.87 988.581 1511.79 1007.68 1510.92 1027.23 C 1509.97 1046.78 1501.24 1065.14 1486.68 1078.21 C 1472.01 1091.39 1453.95 1096.98 1434.4 1095.82 C 1410.43 1094.62 1388.77 1081.13 1377.13 1060.14 C 1375.33 1056.83 1371.9 1047.43 1369.16 1045.46 C 1364.14 1041.84 1245.19 1044.07 1229.31 1044.11 C 1222.31 1089.98 1211.6 1117.53 1182.49 1154.13 C 1226.77 1197.82 1269.05 1244.64 1312.57 1289.12 C 1315.07 1287.98 1317.63 1286.96 1320.23 1286.07 C 1337.99 1279.74 1358.88 1280.52 1375.87 1288.83 C 1393.07 1297.14 1406.2 1312.03 1412.28 1330.13 C 1418.46 1348.3 1417.37 1370.28 1408.8 1387.53 C 1400.34 1404.62 1385.32 1417.55 1367.16 1423.37 C 1349.55 1429.01 1328.17 1427.75 1311.67 1419.22 C 1294.91 1410.37 1282.3 1395.28 1276.57 1377.22 C 1270.07 1356.57 1273.59 1336.73 1283.37 1317.93 C 1271.18 1303.27 1249.31 1281.8 1235.62 1267.58 C 1208.57 1239.47 1181.34 1210.53 1154.02 1182.8 C 1120.32 1210.4 1089.09 1222.14 1046.61 1227.65 C 1018.59 1374.86 963.025 1528.5 850.061 1632.01 C 771.29 1705.6 666.379 1744.67 558.659 1740.53 C 493.645 1737.48 431.087 1718.62 380.624 1676.6 C 324.014 1629.45 289.521 1566.23 280.07 1493.36 C 276.565 1466.33 276.996 1442.01 277.081 1414.81 L 277.405 1335.07 C 277.728 1266.4 278.996 1209.27 228.946 1153.37 C 196.227 1116.83 151.889 1097.82 102.944 1095.89 L 102.822 951.943 C 107.219 951.603 111.611 951.195 115.995 950.72 C 155.098 946.255 192.916 930.927 220.636 902.683 C 276.517 845.743 277.984 792.697 277.909 720.016 L 277.787 627.628 C 277.748 599.298 276.653 573.718 281.184 545.511 C 289.167 496.17 310.073 449.822 341.775 411.179 C 393.68 346.754 462.503 316.085 543.381 307.388 C 552.23 306.275 577.682 306.855 587.811 306.865 L 677.373 306.936 C 678.539 360.403 677.372 415.265 677.455 468.799 C 655.995 469.51 631.667 469.489 610.395 468.967 C 570.465 467.587 535.24 470.346 502.386 495.972 C 450.508 536.437 450.073 588.536 450.038 647.877 L 450.097 733.836 C 450.178 764.942 451.411 783.817 446.986 815.209 C 436.761 887.738 405.405 948.715 350.457 997.63 C 338.222 1008.52 328.71 1014.31 316.141 1023.81 C 399.782 1078.43 443.658 1164.98 449.935 1262.98 C 450.936 1278.62 450.249 1293.77 450.207 1309.43 L 450.078 1394.21 C 450.047 1436.36 448.18 1474.4 468.986 1512.4 C 486.073 1542.99 514.662 1565.5 548.409 1574.92 C 563.497 1579.27 571.635 1579.35 586.723 1579.36 C 773.56 1579.53 861.114 1388.3 898.072 1233.07 C 901.21 1219.89 903.793 1206.25 907.49 1193.27 L 893.289 1181.93 C 880.103 1197.68 859.094 1219.12 844.64 1234.12 C 817.783 1261.76 791.067 1289.54 764.491 1317.45 C 787.732 1356.26 772.684 1405.84 729.875 1422.27 C 711.546 1429.16 691.229 1428.49 673.398 1420.4 C 655.786 1412.21 642.269 1397.2 635.963 1378.83 C 629.483 1360.04 630.803 1339.44 639.629 1321.63 C 648.108 1304.59 663.074 1291.67 681.168 1285.77 C 699.611 1279.68 718.014 1280.42 735.395 1289.17 C 762.557 1262.19 788.812 1233.41 815.572 1205.98 C 831.906 1189.24 848.693 1170.56 865.921 1154.78 C 840.086 1119.47 823.478 1089.54 819.785 1044.39 C 776.025 1044.07 721.768 1042.64 678.655 1044.61 C 677.166 1048.35 675.55 1052.05 673.808 1055.68 C 665.476 1072.63 651.089 1086.27 633.071 1092.35 C 614.502 1098.42 594.297 1097.01 576.755 1088.41 C 559.828 1080 546.949 1065.2 540.966 1047.27 C 528.581 1009.25 548.962 966.51 587.629 954.647 C 606.376 949.056 626.584 951.244 643.701 960.716 C 661.407 970.315 672.337 984.686 678.154 1003.82 L 819.627 1003.88 C 825.258 961.194 836.963 927.268 865.875 894.137 C 855.53 885.744 830.343 858.546 820.208 847.977 C 792.149 819.002 764.339 789.788 736.778 760.339 C 716.482 769.807 695.316 771.513 674.608 762.091 C 656.869 754.072 643.106 739.245 636.428 720.958 C 629.918 702.483 630.928 682.191 639.24 664.454 C 647.213 647.278 661.818 634.077 679.709 627.874 C 698.675 621.177 719.542 622.421 737.578 631.323 C 752.351 638.658 767.041 656.281 771.785 672.11 C 778.688 695.15 775.465 712.646 765.143 733.344 L 845.916 816.068 C 859.895 830.434 880.566 850.59 893.052 865.687 C 925.451 841.329 951.628 827.846 992.165 820.461 z M 1035.59 1126.11 C 1092.14 1119.71 1132.74 1068.59 1126.16 1012.05 C 1119.58 955.52 1068.33 915.086 1011.81 921.848 C 955.556 928.579 915.346 979.551 921.896 1035.83 C 928.446 1092.11 979.288 1132.48 1035.59 1126.11 z"></path>
</svg>