<svg xmlns="http://www.w3.org/2000/svg" viewBox="14 9.8 56.7 56.7">
<!-- SVG created with Arrow, by QuiverAI (https://quiver.ai) -->
  <style type="text/css">.cls-0 {fill:#000;}</style>
  <path class="cls-0" d="m51.7 16.2 12 12.3h-13v-12.3zm1.6-3.8h-22c-2.7 0-6.8 2.1-6.9 5.2v16.3h29c3.1 0 6.2 2.3 6.4 5.8v12.9c0 3.1-2.3 6.1-6.4 6.1h-29c0 2.7 2.2 5.2 5.2 5.2h32.3c3 0.1 5.6-2.3 5.7-5.2v-31.2l-15.7-15.1h1.4z"/>
  <path class="cls-0" d="m26.1 43.4h-1.4v2.5h1.3c0.9 0 1.3-0.5 1.3-1.2s-0.3-1.3-1.2-1.3z"/>
  <path class="cls-0" d="m52.8 36.6h-31.5c-2.3 0-4 1.8-4 3.9v11.8c0.2 2.1 1.8 3.7 3.9 3.7h31.6c2.1 0 4.1-1.7 4.1-3.8v-11.7c0-2.1-1.7-3.9-4.1-3.9zm-25.3 14.2-1.3-3.3h-1.6v3.3h-1.6l0.1-9h2.9c2 0 3.1 0.8 3.1 2.6 0 1.2-0.7 2-1.2 2.3l1.5 3.8h-1.9v0.4zm9.2 0h-6.1v-8.9h6v1.6h-4.3v1.9h3.3v1.6h-3.3v2.1h4.4v1.7zm4 0.1c-0.8 0-1.9-0.1-2.7-0.4l0.1-1.7c0.6 0.2 1.6 0.5 2.4 0.5h0.2c0.9 0 1.4-0.3 1.4-0.9 0-1.4-3-1.2-3.8-3.5-0.2-0.7-0.2-2.6 2.3-2.9 1.2-0.1 2.5 0.2 3.2 1l-1 1.2c-0.5-0.4-1-0.8-1.8-0.8h-0.2c-0.7 0.1-1.1 0.5-0.8 1.3 0.6 0.9 3.7 1.2 3.7 3.5 0 2-1.6 2.7-3 2.7zm9-0.1-1.5-3.1-1.5 3.1h-2.1l2.7-4.5-2.7-4.5h2.1l1.4 2.9 1.5-2.9h2.1l-2.7 4.3 2.6 4.6h-1.9v0.1z"/>
  <path d="m31.3 18.4h11.6c0.6 0 1 0.5 1 1.1s-0.4 1.1-1 1.1h-11.7c-0.6 0-1.1-0.5-1.1-1.1s0.5-1.1 1.2-1.1z" fill="#fff"/>
  <path d="m31.2 25.2h11.6c0.6 0 1.1 0.5 1.1 1.1s-0.4 1.1-1.1 1.1h-11.6c-0.6 0-1.1-0.5-1.1-1.1s0.5-1.1 1.1-1.1z" fill="#fff"/>
</svg>